<svg width="64" height="64" viewBox="0 0 64 64" fill="none" xmlns="http://www.w3.org/2000/svg">
<g clip-path="url(#clip0_90_110)">
<circle cx="32" cy="32" r="29.5" fill="white" stroke="#C72D2D" stroke-width="5"/>
<path d="M30.8711 44H13.9043V40.4307L19.9971 34.2715C21.2256 33.0098 22.2106 31.9583 22.9521 31.1172C23.7048 30.265 24.2471 29.4902 24.5791 28.793C24.9222 28.0957 25.0938 27.3486 25.0938 26.5518C25.0938 25.5889 24.8226 24.8695 24.2803 24.3936C23.749 23.9066 23.0352 23.6631 22.1387 23.6631C21.1979 23.6631 20.2848 23.8789 19.3994 24.3105C18.514 24.7422 17.5898 25.3564 16.627 26.1533L13.8379 22.8496C14.5352 22.252 15.2712 21.6875 16.0459 21.1562C16.8317 20.625 17.7393 20.1989 18.7686 19.8779C19.8089 19.5459 21.054 19.3799 22.5039 19.3799C24.0977 19.3799 25.4645 19.6676 26.6045 20.2432C27.7555 20.8187 28.641 21.6045 29.2607 22.6006C29.8805 23.5856 30.1904 24.7035 30.1904 25.9541C30.1904 27.2933 29.9248 28.5163 29.3936 29.623C28.8623 30.7298 28.0876 31.8255 27.0693 32.9102C26.0622 33.9948 24.8447 35.1956 23.417 36.5127L20.2959 39.4512V39.6836H30.8711V44Z" fill="black"/>
<path d="M42.1934 28.4941C43.6764 28.4941 44.9935 28.7764 46.1445 29.3408C47.3066 29.9053 48.2197 30.7354 48.8838 31.8311C49.5479 32.9268 49.8799 34.277 49.8799 35.8818C49.8799 37.6305 49.5146 39.1413 48.7842 40.4141C48.0648 41.6758 46.9857 42.6442 45.5469 43.3193C44.1191 43.9945 42.3372 44.332 40.2012 44.332C38.9284 44.332 37.7275 44.2214 36.5986 44C35.4808 43.7897 34.5013 43.4632 33.6602 43.0205V38.5879C34.5013 39.0306 35.5085 39.4069 36.6816 39.7168C37.8659 40.0156 38.9782 40.165 40.0186 40.165C41.0368 40.165 41.8945 40.0322 42.5918 39.7666C43.2891 39.4899 43.8148 39.0693 44.1689 38.5049C44.5342 37.9294 44.7168 37.1989 44.7168 36.3135C44.7168 35.1292 44.3184 34.2217 43.5215 33.5908C42.7246 32.96 41.5016 32.6445 39.8525 32.6445C39.2217 32.6445 38.5632 32.7054 37.877 32.8271C37.2018 32.9489 36.6374 33.0706 36.1836 33.1924L34.1416 32.0967L35.0547 19.7285H48.2197V24.0781H39.5537L39.1055 28.8428C39.4818 28.7653 39.8913 28.6878 40.334 28.6104C40.7767 28.5329 41.3965 28.4941 42.1934 28.4941Z" fill="black"/>
</g>
<defs>
<clipPath id="clip0_90_110">
<rect width="64" height="64" fill="white"/>
</clipPath>
</defs>
</svg>
