<svg width="64" height="64" viewBox="0 0 64 64" fill="none" xmlns="http://www.w3.org/2000/svg">
<g clip-path="url(#clip0_90_120)">
<circle cx="32" cy="32" r="29.5" fill="white" stroke="#C72D2D" stroke-width="5"/>
<path d="M22.2715 19.4131C23.666 19.4131 24.9499 19.6289 26.123 20.0605C27.3073 20.4922 28.2536 21.1452 28.9619 22.0195C29.6702 22.8828 30.0244 23.9674 30.0244 25.2734C30.0244 26.2474 29.8307 27.0996 29.4434 27.8301C29.0671 28.5605 28.5524 29.2025 27.8994 29.7559C27.2464 30.2982 26.5049 30.7741 25.6748 31.1836C26.5381 31.6374 27.3571 32.1686 28.1318 32.7773C28.9066 33.375 29.5374 34.0778 30.0244 34.8857C30.5225 35.6937 30.7715 36.6344 30.7715 37.708C30.7715 39.0583 30.4118 40.2314 29.6924 41.2275C28.973 42.2126 27.9769 42.9762 26.7041 43.5186C25.4313 44.0609 23.9538 44.332 22.2715 44.332C20.4564 44.332 18.9124 44.0719 17.6396 43.5518C16.3669 43.0316 15.3984 42.29 14.7344 41.3271C14.0703 40.3532 13.7383 39.1911 13.7383 37.8408C13.7383 36.734 13.943 35.7712 14.3525 34.9521C14.7731 34.1331 15.3376 33.4303 16.0459 32.8438C16.7542 32.2461 17.5345 31.737 18.3867 31.3164C17.6673 30.8626 17.0088 30.348 16.4111 29.7725C15.8245 29.1969 15.3542 28.5384 15 27.7969C14.6569 27.0553 14.4854 26.2031 14.4854 25.2402C14.4854 23.9564 14.8451 22.8828 15.5645 22.0195C16.2949 21.1562 17.2523 20.5088 18.4365 20.0771C19.6208 19.6344 20.8991 19.4131 22.2715 19.4131ZM18.4863 37.542C18.4863 38.4163 18.7962 39.1413 19.416 39.7168C20.0469 40.2812 20.9766 40.5635 22.2051 40.5635C23.4779 40.5635 24.4297 40.2923 25.0605 39.75C25.6914 39.1966 26.0068 38.4717 26.0068 37.5752C26.0068 36.9554 25.8242 36.4131 25.459 35.9482C25.1048 35.4834 24.6566 35.0684 24.1143 34.7031C23.5719 34.3268 23.0241 33.9782 22.4707 33.6572L22.0225 33.4248C21.3141 33.7458 20.6943 34.1055 20.1631 34.5039C19.6429 34.9023 19.2334 35.3506 18.9346 35.8486C18.6357 36.3467 18.4863 36.9111 18.4863 37.542ZM22.2383 23.165C21.3971 23.165 20.6999 23.3809 20.1465 23.8125C19.5931 24.2441 19.3164 24.8529 19.3164 25.6387C19.3164 26.1921 19.4492 26.679 19.7148 27.0996C19.9915 27.5091 20.3512 27.8688 20.7939 28.1787C21.2477 28.4886 21.7402 28.7764 22.2715 29.042C22.7806 28.7985 23.2565 28.5273 23.6992 28.2285C24.1419 27.9297 24.5016 27.57 24.7783 27.1494C25.055 26.7288 25.1934 26.2253 25.1934 25.6387C25.1934 24.8529 24.9111 24.2441 24.3467 23.8125C23.7933 23.3809 23.0905 23.165 22.2383 23.165Z" fill="black"/>
<path d="M50.1953 31.8643C50.1953 33.8232 50.0404 35.5719 49.7305 37.1104C49.4316 38.6488 48.9447 39.9548 48.2695 41.0283C47.6055 42.1019 46.7311 42.9209 45.6465 43.4854C44.5618 44.0498 43.2448 44.332 41.6953 44.332C39.7474 44.332 38.1481 43.8395 36.8975 42.8545C35.6468 41.8584 34.7227 40.4307 34.125 38.5713C33.5273 36.7008 33.2285 34.4652 33.2285 31.8643C33.2285 29.2412 33.4997 27 34.042 25.1406C34.5954 23.2702 35.4919 21.8369 36.7314 20.8408C37.971 19.8447 39.6257 19.3467 41.6953 19.3467C43.6322 19.3467 45.2259 19.8447 46.4766 20.8408C47.7383 21.8258 48.6735 23.2536 49.2822 25.124C49.891 26.9834 50.1953 29.2301 50.1953 31.8643ZM38.3252 31.8643C38.3252 33.7126 38.4248 35.2565 38.624 36.4961C38.8343 37.7246 39.1829 38.6488 39.6699 39.2686C40.1569 39.8883 40.832 40.1982 41.6953 40.1982C42.5475 40.1982 43.2171 39.8939 43.7041 39.2852C44.2021 38.6654 44.5563 37.7412 44.7666 36.5127C44.9769 35.2731 45.082 33.7236 45.082 31.8643C45.082 30.016 44.9769 28.472 44.7666 27.2324C44.5563 25.9928 44.2021 25.0632 43.7041 24.4434C43.2171 23.8125 42.5475 23.4971 41.6953 23.4971C40.832 23.4971 40.1569 23.8125 39.6699 24.4434C39.1829 25.0632 38.8343 25.9928 38.624 27.2324C38.4248 28.472 38.3252 30.016 38.3252 31.8643Z" fill="black"/>
</g>
<defs>
<clipPath id="clip0_90_120">
<rect width="64" height="64" fill="white"/>
</clipPath>
</defs>
</svg>
