<svg width="64" height="64" viewBox="0 0 64 64" fill="none" xmlns="http://www.w3.org/2000/svg">
<g clip-path="url(#clip0_90_123)">
<circle cx="32" cy="32" r="29.5" fill="white" stroke="#C72D2D" stroke-width="5"/>
<path d="M31.4189 38.9697H28.4971V44H23.4834V38.9697H13.124V35.4004L23.7656 19.7285H28.4971V34.9854H31.4189V38.9697ZM23.4834 34.9854V30.8682C23.4834 30.4808 23.4889 30.0215 23.5 29.4902C23.5221 28.959 23.5443 28.4277 23.5664 27.8965C23.5885 27.3652 23.6107 26.8949 23.6328 26.4854C23.666 26.0648 23.6882 25.7715 23.6992 25.6055H23.5664C23.3561 26.0592 23.1348 26.502 22.9023 26.9336C22.6699 27.3542 22.3988 27.7969 22.0889 28.2617L17.6396 34.9854H23.4834Z" fill="black"/>
<path d="M50.1953 31.8643C50.1953 33.8232 50.0404 35.5719 49.7305 37.1104C49.4316 38.6488 48.9447 39.9548 48.2695 41.0283C47.6055 42.1019 46.7311 42.9209 45.6465 43.4854C44.5618 44.0498 43.2448 44.332 41.6953 44.332C39.7474 44.332 38.1481 43.8395 36.8975 42.8545C35.6468 41.8584 34.7227 40.4307 34.125 38.5713C33.5273 36.7008 33.2285 34.4652 33.2285 31.8643C33.2285 29.2412 33.4997 27 34.042 25.1406C34.5954 23.2702 35.4919 21.8369 36.7314 20.8408C37.971 19.8447 39.6257 19.3467 41.6953 19.3467C43.6322 19.3467 45.2259 19.8447 46.4766 20.8408C47.7383 21.8258 48.6735 23.2536 49.2822 25.124C49.891 26.9834 50.1953 29.2301 50.1953 31.8643ZM38.3252 31.8643C38.3252 33.7126 38.4248 35.2565 38.624 36.4961C38.8343 37.7246 39.1829 38.6488 39.6699 39.2686C40.1569 39.8883 40.832 40.1982 41.6953 40.1982C42.5475 40.1982 43.2171 39.8939 43.7041 39.2852C44.2021 38.6654 44.5563 37.7412 44.7666 36.5127C44.9769 35.2731 45.082 33.7236 45.082 31.8643C45.082 30.016 44.9769 28.472 44.7666 27.2324C44.5563 25.9928 44.2021 25.0632 43.7041 24.4434C43.2171 23.8125 42.5475 23.4971 41.6953 23.4971C40.832 23.4971 40.1569 23.8125 39.6699 24.4434C39.1829 25.0632 38.8343 25.9928 38.624 27.2324C38.4248 28.472 38.3252 30.016 38.3252 31.8643Z" fill="black"/>
</g>
<defs>
<clipPath id="clip0_90_123">
<rect width="64" height="64" fill="white"/>
</clipPath>
</defs>
</svg>
