<svg width="64" height="64" viewBox="0 0 64 64" fill="none" xmlns="http://www.w3.org/2000/svg">
<g clip-path="url(#clip0_90_117)">
<circle cx="32" cy="32" r="29.5" fill="white" stroke="#C72D2D" stroke-width="5"/>
<path d="M19.8406 42H15.3143V29.6074C15.3143 29.2656 15.3192 28.8457 15.3289 28.3477C15.3387 27.8398 15.3533 27.3223 15.3729 26.7949C15.3924 26.2578 15.4119 25.7744 15.4315 25.3447C15.324 25.4717 15.1043 25.6914 14.7723 26.0039C14.45 26.3066 14.1473 26.5801 13.8641 26.8242L11.4031 28.8018L9.22052 26.0771L16.1199 20.584H19.8406V42Z" fill="black"/>
<path d="M38.2707 31.292C38.2707 33.0205 38.134 34.5635 37.8606 35.9209C37.5969 37.2783 37.1672 38.4307 36.5715 39.3779C35.9856 40.3252 35.2141 41.0479 34.257 41.5459C33.3 42.0439 32.1379 42.293 30.7707 42.293C29.052 42.293 27.6408 41.8584 26.5373 40.9893C25.4338 40.1104 24.6184 38.8506 24.091 37.21C23.5637 35.5596 23.3 33.5869 23.3 31.292C23.3 28.9775 23.5393 27 24.0178 25.3594C24.5061 23.709 25.2971 22.4443 26.3908 21.5654C27.4846 20.6865 28.9445 20.2471 30.7707 20.2471C32.4797 20.2471 33.886 20.6865 34.9895 21.5654C36.1027 22.4346 36.9279 23.6943 37.4651 25.3447C38.0022 26.9854 38.2707 28.9678 38.2707 31.292ZM27.7971 31.292C27.7971 32.9229 27.885 34.2852 28.0608 35.3789C28.2463 36.4629 28.5539 37.2783 28.9836 37.8252C29.4133 38.3721 30.009 38.6455 30.7707 38.6455C31.5227 38.6455 32.1135 38.377 32.5432 37.8398C32.9826 37.293 33.2951 36.4775 33.4807 35.3936C33.6662 34.2998 33.759 32.9326 33.759 31.292C33.759 29.6611 33.6662 28.2988 33.4807 27.2051C33.2951 26.1113 32.9826 25.291 32.5432 24.7441C32.1135 24.1875 31.5227 23.9092 30.7707 23.9092C30.009 23.9092 29.4133 24.1875 28.9836 24.7441C28.5539 25.291 28.2463 26.1113 28.0608 27.2051C27.885 28.2988 27.7971 29.6611 27.7971 31.292Z" fill="black"/>
<path d="M55.4387 31.292C55.4387 33.0205 55.302 34.5635 55.0285 35.9209C54.7649 37.2783 54.3352 38.4307 53.7395 39.3779C53.1535 40.3252 52.382 41.0479 51.425 41.5459C50.468 42.0439 49.3059 42.293 47.9387 42.293C46.2199 42.293 44.8088 41.8584 43.7053 40.9893C42.6018 40.1104 41.7863 38.8506 41.259 37.21C40.7317 35.5596 40.468 33.5869 40.468 31.292C40.468 28.9775 40.7072 27 41.1858 25.3594C41.674 23.709 42.4651 22.4443 43.5588 21.5654C44.6526 20.6865 46.1125 20.2471 47.9387 20.2471C49.6477 20.2471 51.0539 20.6865 52.1574 21.5654C53.2707 22.4346 54.0959 23.6943 54.633 25.3447C55.1701 26.9854 55.4387 28.9678 55.4387 31.292ZM44.9651 31.292C44.9651 32.9229 45.0529 34.2852 45.2287 35.3789C45.4143 36.4629 45.7219 37.2783 46.1516 37.8252C46.5813 38.3721 47.177 38.6455 47.9387 38.6455C48.6906 38.6455 49.2815 38.377 49.7111 37.8398C50.1506 37.293 50.4631 36.4775 50.6486 35.3936C50.8342 34.2998 50.927 32.9326 50.927 31.292C50.927 29.6611 50.8342 28.2988 50.6486 27.2051C50.4631 26.1113 50.1506 25.291 49.7111 24.7441C49.2815 24.1875 48.6906 23.9092 47.9387 23.9092C47.177 23.9092 46.5813 24.1875 46.1516 24.7441C45.7219 25.291 45.4143 26.1113 45.2287 27.2051C45.0529 28.2988 44.9651 29.6611 44.9651 31.292Z" fill="black"/>
</g>
<defs>
<clipPath id="clip0_90_117">
<rect width="64" height="64" fill="white"/>
</clipPath>
</defs>
</svg>
