<svg width="64" height="64" viewBox="0 0 64 64" fill="none" xmlns="http://www.w3.org/2000/svg">
<g clip-path="url(#clip0_90_106)">
<circle cx="32" cy="32" r="29.5" fill="white" stroke="#C72D2D" stroke-width="5"/>
<path d="M26.4379 44H21.308V29.9551C21.308 29.5677 21.3135 29.0918 21.3246 28.5273C21.3357 27.9518 21.3523 27.3652 21.3744 26.7676C21.3965 26.1589 21.4187 25.611 21.4408 25.124C21.3191 25.2679 21.0701 25.5169 20.6937 25.8711C20.3285 26.2142 19.9854 26.5241 19.6645 26.8008L16.8754 29.042L14.4018 25.9541L22.2211 19.7285H26.4379V44Z" fill="black"/>
<path d="M40.3434 28.4941C41.8264 28.4941 43.1435 28.7764 44.2945 29.3408C45.4566 29.9053 46.3697 30.7354 47.0338 31.8311C47.6978 32.9268 48.0299 34.277 48.0299 35.8818C48.0299 37.6305 47.6646 39.1413 46.9342 40.4141C46.2148 41.6758 45.1357 42.6442 43.6969 43.3193C42.2691 43.9945 40.4872 44.332 38.3512 44.332C37.0784 44.332 35.8775 44.2214 34.7486 44C33.6308 43.7897 32.6513 43.4632 31.8102 43.0205V38.5879C32.6513 39.0306 33.6585 39.4069 34.8316 39.7168C36.0159 40.0156 37.1282 40.165 38.1686 40.165C39.1868 40.165 40.0445 40.0322 40.7418 39.7666C41.4391 39.4899 41.9648 39.0693 42.3189 38.5049C42.6842 37.9294 42.8668 37.1989 42.8668 36.3135C42.8668 35.1292 42.4684 34.2217 41.6715 33.5908C40.8746 32.96 39.6516 32.6445 38.0025 32.6445C37.3717 32.6445 36.7131 32.7054 36.027 32.8271C35.3518 32.9489 34.7874 33.0706 34.3336 33.1924L32.2916 32.0967L33.2047 19.7285H46.3697V24.0781H37.7037L37.2555 28.8428C37.6318 28.7653 38.0413 28.6878 38.484 28.6104C38.9267 28.5329 39.5465 28.4941 40.3434 28.4941Z" fill="black"/>
</g>
<defs>
<clipPath id="clip0_90_106">
<rect width="64" height="64" fill="white"/>
</clipPath>
</defs>
</svg>
