<svg width="64" height="64" viewBox="0 0 64 64" fill="none" xmlns="http://www.w3.org/2000/svg">
<g clip-path="url(#clip0_90_61)">
<circle cx="32" cy="32" r="29.5" fill="white" stroke="#C72D2D" stroke-width="5"/>
<path d="M26.4379 44H21.308V29.9551C21.308 29.5677 21.3135 29.0918 21.3246 28.5273C21.3357 27.9518 21.3523 27.3652 21.3744 26.7676C21.3965 26.1589 21.4187 25.611 21.4408 25.124C21.3191 25.2679 21.0701 25.5169 20.6938 25.8711C20.3285 26.2142 19.9854 26.5241 19.6645 26.8008L16.8754 29.042L14.4018 25.9541L22.2211 19.7285H26.4379V44Z" fill="black"/>
<path d="M48.3453 31.8643C48.3453 33.8232 48.1904 35.5719 47.8805 37.1104C47.5816 38.6488 47.0947 39.9548 46.4195 41.0283C45.7555 42.1019 44.8811 42.9209 43.7965 43.4854C42.7118 44.0498 41.3948 44.332 39.8453 44.332C37.8974 44.332 36.2981 43.8395 35.0475 42.8545C33.7968 41.8584 32.8727 40.4307 32.275 38.5713C31.6773 36.7008 31.3785 34.4652 31.3785 31.8643C31.3785 29.2412 31.6497 27 32.192 25.1406C32.7454 23.2702 33.6419 21.8369 34.8814 20.8408C36.121 19.8447 37.7757 19.3467 39.8453 19.3467C41.7822 19.3467 43.3759 19.8447 44.6266 20.8408C45.8883 21.8258 46.8235 23.2536 47.4322 25.124C48.041 26.9834 48.3453 29.2301 48.3453 31.8643ZM36.4752 31.8643C36.4752 33.7126 36.5748 35.2565 36.774 36.4961C36.9843 37.7246 37.3329 38.6488 37.8199 39.2686C38.3069 39.8883 38.982 40.1982 39.8453 40.1982C40.6975 40.1982 41.3671 39.8939 41.8541 39.2852C42.3521 38.6654 42.7063 37.7412 42.9166 36.5127C43.1269 35.2731 43.232 33.7236 43.232 31.8643C43.232 30.016 43.1269 28.472 42.9166 27.2324C42.7063 25.9928 42.3521 25.0632 41.8541 24.4434C41.3671 23.8125 40.6975 23.4971 39.8453 23.4971C38.982 23.4971 38.3069 23.8125 37.8199 24.4434C37.3329 25.0632 36.9843 25.9928 36.774 27.2324C36.5748 28.472 36.4752 30.016 36.4752 31.8643Z" fill="black"/>
</g>
<defs>
<clipPath id="clip0_90_61">
<rect width="64" height="64" fill="white"/>
</clipPath>
</defs>
</svg>
