<svg width="64" height="64" viewBox="0 0 64 64" fill="none" xmlns="http://www.w3.org/2000/svg">
<g clip-path="url(#clip0_90_86)">
<path d="M31.1025 3.60742C31.4691 2.86343 32.5309 2.86343 32.8975 3.60742L60.4668 59.5576C60.7942 60.2222 60.3102 61 59.5693 61H4.43066C3.68981 61 3.20575 60.2222 3.5332 59.5576L31.1025 3.60742Z" fill="white" stroke="#C72D2D" stroke-width="6"/>
<path d="M34.5225 44.0537H29.5186L28.4727 24.0176H35.5684L34.5225 44.0537ZM28.3906 51.0674C28.3906 49.7822 28.7393 48.8799 29.4365 48.3604C30.1475 47.8408 31.002 47.5811 32 47.5811C32.9707 47.5811 33.8047 47.8408 34.502 48.3604C35.2129 48.8799 35.5684 49.7822 35.5684 51.0674C35.5684 52.2979 35.2129 53.1865 34.502 53.7334C33.8047 54.2803 32.9707 54.5537 32 54.5537C31.002 54.5537 30.1475 54.2803 29.4365 53.7334C28.7393 53.1865 28.3906 52.2979 28.3906 51.0674Z" fill="black"/>
</g>
<defs>
<clipPath id="clip0_90_86">
<rect width="64" height="64" fill="white"/>
</clipPath>
</defs>
</svg>
