<svg width="64" height="64" viewBox="0 0 64 64" fill="none" xmlns="http://www.w3.org/2000/svg">
<g clip-path="url(#clip0_90_126)">
<circle cx="32" cy="32" r="29.5" fill="white" stroke="#C72D2D" stroke-width="5"/>
<path d="M29.9248 25.1572C29.9248 26.2751 29.6924 27.2435 29.2275 28.0625C28.7627 28.8815 28.1318 29.5511 27.335 30.0713C26.5492 30.5915 25.6637 30.9733 24.6787 31.2168V31.3164C26.6266 31.5599 28.1042 32.1576 29.1113 33.1094C30.1296 34.0612 30.6387 35.334 30.6387 36.9277C30.6387 38.3444 30.29 39.6117 29.5928 40.7295C28.9066 41.8473 27.8441 42.7272 26.4053 43.3691C24.9665 44.0111 23.1126 44.332 20.8438 44.332C19.5046 44.332 18.2539 44.2214 17.0918 44C15.9408 43.7897 14.8561 43.4632 13.8379 43.0205V38.6543C14.8783 39.1855 15.9684 39.5895 17.1084 39.8662C18.2484 40.1318 19.3109 40.2646 20.2959 40.2646C22.1331 40.2646 23.417 39.9492 24.1475 39.3184C24.889 38.6764 25.2598 37.7799 25.2598 36.6289C25.2598 35.9538 25.0882 35.3838 24.7451 34.9189C24.402 34.4541 23.8044 34.0999 22.9521 33.8564C22.111 33.613 20.9323 33.4912 19.416 33.4912H17.5732V29.5566H19.4492C20.9434 29.5566 22.0778 29.4183 22.8525 29.1416C23.6383 28.8538 24.1696 28.4665 24.4463 27.9795C24.734 27.4814 24.8779 26.917 24.8779 26.2861C24.8779 25.4229 24.6123 24.7477 24.0811 24.2607C23.5498 23.7738 22.6644 23.5303 21.4248 23.5303C20.6501 23.5303 19.9417 23.6299 19.2998 23.8291C18.6689 24.0173 18.099 24.2497 17.5898 24.5264C17.0807 24.792 16.6325 25.0521 16.2451 25.3066L13.8711 21.7705C14.8229 21.0843 15.9352 20.5143 17.208 20.0605C18.4919 19.6068 20.0192 19.3799 21.79 19.3799C24.2913 19.3799 26.2725 19.8835 27.7334 20.8906C29.1943 21.8978 29.9248 23.32 29.9248 25.1572Z" fill="black"/>
<path d="M50.1953 31.8643C50.1953 33.8232 50.0404 35.5719 49.7305 37.1104C49.4316 38.6488 48.9447 39.9548 48.2695 41.0283C47.6055 42.1019 46.7311 42.9209 45.6465 43.4854C44.5618 44.0498 43.2448 44.332 41.6953 44.332C39.7474 44.332 38.1481 43.8395 36.8975 42.8545C35.6468 41.8584 34.7227 40.4307 34.125 38.5713C33.5273 36.7008 33.2285 34.4652 33.2285 31.8643C33.2285 29.2412 33.4997 27 34.042 25.1406C34.5954 23.2702 35.4919 21.8369 36.7314 20.8408C37.971 19.8447 39.6257 19.3467 41.6953 19.3467C43.6322 19.3467 45.2259 19.8447 46.4766 20.8408C47.7383 21.8258 48.6735 23.2536 49.2822 25.124C49.891 26.9834 50.1953 29.2301 50.1953 31.8643ZM38.3252 31.8643C38.3252 33.7126 38.4248 35.2565 38.624 36.4961C38.8343 37.7246 39.1829 38.6488 39.6699 39.2686C40.1569 39.8883 40.832 40.1982 41.6953 40.1982C42.5475 40.1982 43.2171 39.8939 43.7041 39.2852C44.2021 38.6654 44.5563 37.7412 44.7666 36.5127C44.9769 35.2731 45.082 33.7236 45.082 31.8643C45.082 30.016 44.9769 28.472 44.7666 27.2324C44.5563 25.9928 44.2021 25.0632 43.7041 24.4434C43.2171 23.8125 42.5475 23.4971 41.6953 23.4971C40.832 23.4971 40.1569 23.8125 39.6699 24.4434C39.1829 25.0632 38.8343 25.9928 38.624 27.2324C38.4248 28.472 38.3252 30.016 38.3252 31.8643Z" fill="black"/>
</g>
<defs>
<clipPath id="clip0_90_126">
<rect width="64" height="64" fill="white"/>
</clipPath>
</defs>
</svg>
