<svg width="64" height="64" viewBox="0 0 64 64" fill="none" xmlns="http://www.w3.org/2000/svg">
<g clip-path="url(#clip0_85_3)">
<path d="M44.0908 3L61 19.9092V44.0908L44.0908 61H19.9092L3 44.0908V19.9092L19.9092 3H44.0908Z" fill="#C72D2D" stroke="white" stroke-width="6"/>
<path d="M18.3132 34.7542C18.3132 35.6179 18.1301 36.3688 17.7637 37.0066C17.3973 37.6445 16.8623 38.1362 16.1586 38.4817C15.4607 38.8272 14.6117 39 13.6114 39C13.1694 39 12.7362 38.9668 12.3117 38.9003C11.8929 38.8339 11.4888 38.7375 11.0991 38.6113C10.7153 38.4784 10.3489 38.3156 10 38.1229V35.2525C10.6048 35.5581 11.2329 35.8339 11.8842 36.0797C12.5356 36.3256 13.1811 36.4485 13.8208 36.4485C14.2628 36.4485 14.6175 36.3821 14.885 36.2492C15.1583 36.1163 15.3561 35.9336 15.4782 35.701C15.6003 35.4684 15.6614 35.2027 15.6614 34.9037C15.6614 34.5382 15.5538 34.2259 15.3386 33.9668C15.1234 33.7076 14.8269 33.4651 14.4489 33.2392C14.0767 33.0133 13.655 32.7708 13.184 32.5116C12.8874 32.3522 12.5646 32.1595 12.2157 31.9336C11.8668 31.701 11.5353 31.4186 11.2213 31.0864C10.9072 30.7542 10.6484 30.3522 10.4449 29.8804C10.2472 29.402 10.1483 28.8306 10.1483 28.1661C10.1483 27.2957 10.3228 26.5515 10.6717 25.9336C11.0206 25.3156 11.5178 24.8439 12.1634 24.5183C12.8147 24.186 13.5823 24.0199 14.4663 24.0199C15.1293 24.0199 15.7602 24.1096 16.3592 24.289C16.964 24.4618 17.595 24.7143 18.2522 25.0465L17.3799 27.4485C16.7925 27.1761 16.2662 26.9668 15.801 26.8206C15.3357 26.6678 14.8618 26.5914 14.3791 26.5914C14.0418 26.5914 13.7539 26.6545 13.5155 26.7807C13.277 26.9003 13.0967 27.0731 12.9746 27.299C12.8525 27.5183 12.7914 27.7741 12.7914 28.0664C12.7914 28.412 12.8787 28.7043 13.0531 28.9435C13.2334 29.1761 13.5009 29.402 13.8557 29.6213C14.2162 29.8405 14.664 30.0963 15.199 30.3887C15.8504 30.7409 16.4058 31.1096 16.8652 31.495C17.3304 31.8738 17.6881 32.3223 17.9381 32.8405C18.1882 33.3522 18.3132 33.99 18.3132 34.7542Z" fill="white"/>
<path d="M25.5448 38.8007H22.8406V26.8007H19.3775V24.2292H29.0079V26.8007H25.5448V38.8007Z" fill="white"/>
<path d="M42.5464 31.495C42.5464 32.6179 42.4243 33.6412 42.18 34.5648C41.9358 35.4817 41.5636 36.2724 41.0634 36.9369C40.5691 37.6013 39.9411 38.113 39.1792 38.4718C38.4174 38.8239 37.516 39 36.475 39C35.434 39 34.5326 38.8239 33.7708 38.4718C33.009 38.113 32.378 37.6013 31.8779 36.9369C31.3836 36.2724 31.0143 35.4784 30.77 34.5548C30.5258 33.6312 30.4036 32.6047 30.4036 31.4751C30.4036 29.9668 30.6188 28.6545 31.0492 27.5382C31.4853 26.4153 32.1541 25.5449 33.0555 24.9269C33.9569 24.309 35.1026 24 36.4925 24C37.8766 24 39.0135 24.309 39.9033 24.9269C40.7988 25.5449 41.4618 26.4153 41.8921 27.5382C42.3283 28.6611 42.5464 29.9801 42.5464 31.495ZM33.2387 31.495C33.2387 32.5116 33.3492 33.3887 33.5702 34.1262C33.797 34.8571 34.1488 35.4219 34.6257 35.8206C35.1026 36.2126 35.719 36.4086 36.475 36.4086C37.2427 36.4086 37.8649 36.2126 38.3418 35.8206C38.8187 35.4219 39.1647 34.8571 39.3799 34.1262C39.6008 33.3887 39.7113 32.5116 39.7113 31.495C39.7113 29.9668 39.4613 28.7641 38.9611 27.887C38.461 27.01 37.6381 26.5714 36.4925 26.5714C35.7306 26.5714 35.1084 26.7708 34.6257 27.1694C34.1488 27.5615 33.797 28.1262 33.5702 28.8638C33.3492 29.5947 33.2387 30.4718 33.2387 31.495Z" fill="white"/>
<path d="M49.2633 24.2292C50.9091 24.2292 52.11 24.6346 52.866 25.4452C53.622 26.2492 54 27.3588 54 28.7741C54 29.412 53.9157 30.0233 53.747 30.608C53.5784 31.186 53.3021 31.701 52.9183 32.1528C52.5403 32.6047 52.0344 32.9635 51.4005 33.2292C50.7666 33.4884 49.9844 33.6179 49.0539 33.6179H47.8937V38.8007H45.1895V24.2292H49.2633ZM49.1237 26.7608H47.8937V31.0864H48.7835C49.2895 31.0864 49.7285 31.01 50.1007 30.8571C50.4729 30.7043 50.7608 30.4651 50.9643 30.1395C51.1679 29.814 51.2696 29.3953 51.2696 28.8837C51.2696 28.1661 51.0952 27.6346 50.7462 27.289C50.3973 26.9369 49.8565 26.7608 49.1237 26.7608Z" fill="white"/>
</g>
<defs>
<clipPath id="clip0_85_3">
<rect width="64" height="64" fill="white"/>
</clipPath>
</defs>
</svg>
