<svg width="64" height="64" viewBox="0 0 64 64" fill="none" xmlns="http://www.w3.org/2000/svg">
<g clip-path="url(#clip0_90_134)">
<circle cx="32" cy="32" r="29.5" fill="white" stroke="#C72D2D" stroke-width="5"/>
<path d="M13.7383 33.6904C13.7383 32.2959 13.8379 30.918 14.0371 29.5566C14.2474 28.1842 14.6071 26.8949 15.1162 25.6885C15.6253 24.471 16.3392 23.3975 17.2578 22.4678C18.1764 21.527 19.3441 20.791 20.7607 20.2598C22.1774 19.7174 23.8929 19.4463 25.9072 19.4463C26.3831 19.4463 26.9365 19.4684 27.5674 19.5127C28.2093 19.5459 28.7406 19.6068 29.1611 19.6953V23.7959C28.7184 23.6963 28.2425 23.6188 27.7334 23.5635C27.2354 23.4971 26.7373 23.4639 26.2393 23.4639C24.2249 23.4639 22.6644 23.7848 21.5576 24.4268C20.4619 25.0687 19.6872 25.9596 19.2334 27.0996C18.7907 28.2285 18.5306 29.5456 18.4531 31.0508H18.6689C18.9788 30.5085 19.3662 30.027 19.8311 29.6064C20.307 29.1859 20.8825 28.8538 21.5576 28.6104C22.2327 28.3558 23.0241 28.2285 23.9316 28.2285C25.3483 28.2285 26.5768 28.5329 27.6172 29.1416C28.6576 29.7393 29.46 30.6081 30.0244 31.748C30.5889 32.888 30.8711 34.277 30.8711 35.915C30.8711 37.6637 30.5335 39.1689 29.8584 40.4307C29.1833 41.6924 28.2259 42.6608 26.9863 43.3359C25.7578 44 24.2969 44.332 22.6035 44.332C21.3639 44.332 20.2074 44.1217 19.1338 43.7012C18.0602 43.2695 17.1195 42.6165 16.3115 41.7422C15.5036 40.8678 14.8727 39.7666 14.4189 38.4385C13.9652 37.0993 13.7383 35.5166 13.7383 33.6904ZM22.5039 40.2314C23.5111 40.2314 24.3301 39.8883 24.9609 39.2021C25.5918 38.516 25.9072 37.4424 25.9072 35.9814C25.9072 34.7972 25.6305 33.8675 25.0771 33.1924C24.5348 32.5062 23.7103 32.1631 22.6035 32.1631C21.8509 32.1631 21.1868 32.3346 20.6113 32.6777C20.0469 33.0098 19.6097 33.4359 19.2998 33.9561C18.9899 34.4652 18.835 34.9909 18.835 35.5332C18.835 36.0977 18.9124 36.6566 19.0674 37.21C19.2223 37.7633 19.4548 38.2669 19.7646 38.7207C20.0745 39.1745 20.4564 39.5397 20.9102 39.8164C21.375 40.0931 21.9062 40.2314 22.5039 40.2314Z" fill="black"/>
<path d="M50.1953 31.8643C50.1953 33.8232 50.0404 35.5719 49.7305 37.1104C49.4316 38.6488 48.9447 39.9548 48.2695 41.0283C47.6055 42.1019 46.7311 42.9209 45.6465 43.4854C44.5618 44.0498 43.2448 44.332 41.6953 44.332C39.7474 44.332 38.1481 43.8395 36.8975 42.8545C35.6468 41.8584 34.7227 40.4307 34.125 38.5713C33.5273 36.7008 33.2285 34.4652 33.2285 31.8643C33.2285 29.2412 33.4997 27 34.042 25.1406C34.5954 23.2702 35.4919 21.8369 36.7314 20.8408C37.971 19.8447 39.6257 19.3467 41.6953 19.3467C43.6322 19.3467 45.2259 19.8447 46.4766 20.8408C47.7383 21.8258 48.6735 23.2536 49.2822 25.124C49.891 26.9834 50.1953 29.2301 50.1953 31.8643ZM38.3252 31.8643C38.3252 33.7126 38.4248 35.2565 38.624 36.4961C38.8343 37.7246 39.1829 38.6488 39.6699 39.2686C40.1569 39.8883 40.832 40.1982 41.6953 40.1982C42.5475 40.1982 43.2171 39.8939 43.7041 39.2852C44.2021 38.6654 44.5563 37.7412 44.7666 36.5127C44.9769 35.2731 45.082 33.7236 45.082 31.8643C45.082 30.016 44.9769 28.472 44.7666 27.2324C44.5563 25.9928 44.2021 25.0632 43.7041 24.4434C43.2171 23.8125 42.5475 23.4971 41.6953 23.4971C40.832 23.4971 40.1569 23.8125 39.6699 24.4434C39.1829 25.0632 38.8343 25.9928 38.624 27.2324C38.4248 28.472 38.3252 30.016 38.3252 31.8643Z" fill="black"/>
</g>
<defs>
<clipPath id="clip0_90_134">
<rect width="64" height="64" fill="white"/>
</clipPath>
</defs>
</svg>
