<svg width="64" height="64" viewBox="0 0 64 64" fill="none" xmlns="http://www.w3.org/2000/svg">
<g clip-path="url(#clip0_90_137)">
<circle cx="32" cy="32" r="29.5" fill="white" stroke="#C72D2D" stroke-width="5"/>
<path d="M22.7363 28.4941C24.2194 28.4941 25.5365 28.7764 26.6875 29.3408C27.8496 29.9053 28.7627 30.7354 29.4268 31.8311C30.0908 32.9268 30.4229 34.277 30.4229 35.8818C30.4229 37.6305 30.0576 39.1413 29.3271 40.4141C28.6077 41.6758 27.5286 42.6442 26.0898 43.3193C24.6621 43.9945 22.8802 44.332 20.7441 44.332C19.4714 44.332 18.2705 44.2214 17.1416 44C16.0238 43.7897 15.0443 43.4632 14.2031 43.0205V38.5879C15.0443 39.0306 16.0514 39.4069 17.2246 39.7168C18.4089 40.0156 19.5212 40.165 20.5615 40.165C21.5798 40.165 22.4375 40.0322 23.1348 39.7666C23.832 39.4899 24.3577 39.0693 24.7119 38.5049C25.0771 37.9294 25.2598 37.1989 25.2598 36.3135C25.2598 35.1292 24.8613 34.2217 24.0645 33.5908C23.2676 32.96 22.0446 32.6445 20.3955 32.6445C19.7646 32.6445 19.1061 32.7054 18.4199 32.8271C17.7448 32.9489 17.1803 33.0706 16.7266 33.1924L14.6846 32.0967L15.5977 19.7285H28.7627V24.0781H20.0967L19.6484 28.8428C20.0247 28.7653 20.4342 28.6878 20.877 28.6104C21.3197 28.5329 21.9395 28.4941 22.7363 28.4941Z" fill="black"/>
<path d="M50.1953 31.8643C50.1953 33.8232 50.0404 35.5719 49.7305 37.1104C49.4316 38.6488 48.9447 39.9548 48.2695 41.0283C47.6055 42.1019 46.7311 42.9209 45.6465 43.4854C44.5618 44.0498 43.2448 44.332 41.6953 44.332C39.7474 44.332 38.1481 43.8395 36.8975 42.8545C35.6468 41.8584 34.7227 40.4307 34.125 38.5713C33.5273 36.7008 33.2285 34.4652 33.2285 31.8643C33.2285 29.2412 33.4997 27 34.042 25.1406C34.5954 23.2702 35.4919 21.8369 36.7314 20.8408C37.971 19.8447 39.6257 19.3467 41.6953 19.3467C43.6322 19.3467 45.2259 19.8447 46.4766 20.8408C47.7383 21.8258 48.6735 23.2536 49.2822 25.124C49.891 26.9834 50.1953 29.2301 50.1953 31.8643ZM38.3252 31.8643C38.3252 33.7126 38.4248 35.2565 38.624 36.4961C38.8343 37.7246 39.1829 38.6488 39.6699 39.2686C40.1569 39.8883 40.832 40.1982 41.6953 40.1982C42.5475 40.1982 43.2171 39.8939 43.7041 39.2852C44.2021 38.6654 44.5563 37.7412 44.7666 36.5127C44.9769 35.2731 45.082 33.7236 45.082 31.8643C45.082 30.016 44.9769 28.472 44.7666 27.2324C44.5563 25.9928 44.2021 25.0632 43.7041 24.4434C43.2171 23.8125 42.5475 23.4971 41.6953 23.4971C40.832 23.4971 40.1569 23.8125 39.6699 24.4434C39.1829 25.0632 38.8343 25.9928 38.624 27.2324C38.4248 28.472 38.3252 30.016 38.3252 31.8643Z" fill="black"/>
</g>
<defs>
<clipPath id="clip0_90_137">
<rect width="64" height="64" fill="white"/>
</clipPath>
</defs>
</svg>
