<svg width="64" height="64" viewBox="0 0 64 64" fill="none" xmlns="http://www.w3.org/2000/svg">
<g clip-path="url(#clip0_90_113)">
<circle cx="32" cy="32" r="29.5" fill="white" stroke="#C72D2D" stroke-width="5"/>
<path d="M30.8711 44H13.9043V40.4307L19.9971 34.2715C21.2256 33.0098 22.2106 31.9583 22.9521 31.1172C23.7048 30.265 24.2471 29.4902 24.5791 28.793C24.9222 28.0957 25.0938 27.3486 25.0938 26.5518C25.0938 25.5889 24.8226 24.8695 24.2803 24.3936C23.749 23.9066 23.0352 23.6631 22.1387 23.6631C21.1979 23.6631 20.2848 23.8789 19.3994 24.3105C18.514 24.7422 17.5898 25.3564 16.627 26.1533L13.8379 22.8496C14.5352 22.252 15.2712 21.6875 16.0459 21.1562C16.8317 20.625 17.7393 20.1989 18.7686 19.8779C19.8089 19.5459 21.054 19.3799 22.5039 19.3799C24.0977 19.3799 25.4645 19.6676 26.6045 20.2432C27.7555 20.8187 28.641 21.6045 29.2607 22.6006C29.8805 23.5856 30.1904 24.7035 30.1904 25.9541C30.1904 27.2933 29.9248 28.5163 29.3936 29.623C28.8623 30.7298 28.0876 31.8255 27.0693 32.9102C26.0622 33.9948 24.8447 35.1956 23.417 36.5127L20.2959 39.4512V39.6836H30.8711V44Z" fill="black"/>
<path d="M50.1953 31.8643C50.1953 33.8232 50.0404 35.5719 49.7305 37.1104C49.4316 38.6488 48.9447 39.9548 48.2695 41.0283C47.6055 42.1019 46.7311 42.9209 45.6465 43.4854C44.5618 44.0498 43.2448 44.332 41.6953 44.332C39.7474 44.332 38.1481 43.8395 36.8975 42.8545C35.6468 41.8584 34.7227 40.4307 34.125 38.5713C33.5273 36.7008 33.2285 34.4652 33.2285 31.8643C33.2285 29.2412 33.4997 27 34.042 25.1406C34.5954 23.2702 35.4919 21.8369 36.7314 20.8408C37.971 19.8447 39.6257 19.3467 41.6953 19.3467C43.6322 19.3467 45.2259 19.8447 46.4766 20.8408C47.7383 21.8258 48.6735 23.2536 49.2822 25.124C49.891 26.9834 50.1953 29.2301 50.1953 31.8643ZM38.3252 31.8643C38.3252 33.7126 38.4248 35.2565 38.624 36.4961C38.8343 37.7246 39.1829 38.6488 39.6699 39.2686C40.1569 39.8883 40.832 40.1982 41.6953 40.1982C42.5475 40.1982 43.2171 39.8939 43.7041 39.2852C44.2021 38.6654 44.5563 37.7412 44.7666 36.5127C44.9769 35.2731 45.082 33.7236 45.082 31.8643C45.082 30.016 44.9769 28.472 44.7666 27.2324C44.5563 25.9928 44.2021 25.0632 43.7041 24.4434C43.2171 23.8125 42.5475 23.4971 41.6953 23.4971C40.832 23.4971 40.1569 23.8125 39.6699 24.4434C39.1829 25.0632 38.8343 25.9928 38.624 27.2324C38.4248 28.472 38.3252 30.016 38.3252 31.8643Z" fill="black"/>
</g>
<defs>
<clipPath id="clip0_90_113">
<rect width="64" height="64" fill="white"/>
</clipPath>
</defs>
</svg>
