<svg width="20" height="20" viewBox="0 0 20 20" fill="none" xmlns="http://www.w3.org/2000/svg">
<g clip-path="url(#clip0_94_41)">
<path d="M14.5 6.25H13.75C13.75 6 13.5 5.5 13.25 5.25C13 5 12.5 4.75 11.875 4.75C11.625 4.75 11.375 4.75 11.125 4.875C11 4.625 10.875 4.5 10.75 4.25C10.5 4 10.125 3.75 9.375 3.75C9.125 3.75 8.875 3.75 8.75 3.875V1.75C8.75 1 8.25 0 7 0C6.5 0 6 0.25 5.625 0.5C5 1.25 5 2.25 5 2.25V7.625C4.25 7.75 3.625 8 3.25 8.375C2.5 9.25 2.5 10.375 2.5 11.875V12.75C2.5 14.5 3.375 15.375 4.25 16.25L4.625 16.75C6.25 18.25 7.625 18.75 11 18.75C14.625 18.75 16.25 16.75 16.25 12.375V9.25C16.25 8.375 16 6.625 14.5 6.25Z" fill="white"/>
<path d="M14.5 6.25H13.75C13.75 6 13.5 5.5 13.25 5.25C13 5 12.5 4.75 11.875 4.75C11.625 4.75 11.375 4.75 11.125 4.875C11 4.625 10.875 4.5 10.75 4.25C10.5 4 10.125 3.75 9.375 3.75C9.125 3.75 8.875 3.75 8.75 3.875V1.75C8.75 1 8.25 0 7 0C6.5 0 6 0.25 5.625 0.5C5 1.25 5 2.25 5 2.25V7.625C4.25 7.75 3.625 8 3.25 8.375C2.5 9.25 2.5 10.375 2.5 11.875V12.75C2.5 14.5 3.375 15.375 4.25 16.25L4.625 16.75C6.25 18.25 7.625 18.75 11 18.75C14.625 18.75 16.25 16.75 16.25 12.375V9.25C16.25 8.375 16 6.625 14.5 6.25ZM15 9.25V12.5C15 16.75 13.375 17.625 11 17.625C8 17.625 6.875 17.25 5.625 16L5.125 15.5C4.25 14.5 3.75 14 3.75 12.75V11.875C3.75 10.625 3.75 9.75 4.125 9.25C4.25 9.125 4.625 9 5 9V9.625L4.625 11.5C4.625 11.625 4.625 11.625 4.75 11.75C4.875 11.875 5 11.75 5 11.75L6.25 10.25V2.25C6.25 2.125 6.25 1.625 6.5 1.375C6.625 1.375 6.75 1.25 7 1.25C7.375 1.25 7.5 1.625 7.5 1.75V7.125C7.5 7.5 7.75 7.875 8.125 7.875C8.5 7.875 8.75 7.5 8.75 7.25V5.625C8.75 5.5 8.875 5 9.375 5C9.75 5 10 5.125 10 5.5V7.125C10 7.5 10.25 7.875 10.625 7.875C11 7.875 11.25 7.5 11.25 7.25V6.375C11.25 6.25 11.375 6 11.875 6C12.125 6 12.25 6.125 12.25 6.125C12.5 6.25 12.5 6.625 12.5 6.625V7.625C12.5 8 12.75 8.25 13 8.25C13.375 8.25 13.625 8.125 13.625 7.75C13.625 7.625 13.75 7.5 13.875 7.375H14.125C14.875 7.625 15 8.875 15 9.25C15 9.125 15 9.125 15 9.25Z" fill="black"/>
</g>
<defs>
<clipPath id="clip0_94_41">
<rect width="20" height="20" fill="white"/>
</clipPath>
</defs>
</svg>
